<?xml version="1.0" encoding="utf-8"?><!-- Uploaded to: SVG Repo, www.svgrepo.com, Generator: SVG Repo Mixer Tools -->
<svg fill="#000000" width="800px" height="800px" viewBox="0 0 24 24" xmlns="http://www.w3.org/2000/svg" id="upload-alt" class="icon glyph"><path d="M8.71,7.71,11,5.41V16a1,1,0,0,0,2,0V5.41l2.29,2.3a1,1,0,0,0,1.42,0,1,1,0,0,0,0-1.42l-4-4h0a1.15,1.15,0,0,0-.33-.21.94.94,0,0,0-.76,0,1.15,1.15,0,0,0-.33.21h0l-4,4A1,1,0,1,0,8.71,7.71Z"></path><path d="M19,20H5a1,1,0,0,0,0,2H19a1,1,0,0,0,0-2Z"></path></svg>